<?xml version="1.0" encoding="UTF-8" standalone="no"?>
<!DOCTYPE svg PUBLIC "-//W3C//DTD SVG 1.1//EN"
 "http://www.w3.org/Graphics/SVG/1.1/DTD/svg11.dtd">
<!-- Generated by graphviz version 2.40.1 (20161225.0304)
 -->
<!-- Title: dependencies Pages: 1 -->
<svg width="596pt" height="284pt"
 viewBox="0.00 0.00 596.00 284.00" xmlns="http://www.w3.org/2000/svg" xmlns:xlink="http://www.w3.org/1999/xlink">
<g id="graph0" class="graph" transform="scale(1 1) rotate(0) translate(4 280)">
<title>dependencies</title>
<polygon fill="#ffffff" stroke="transparent" points="-4,4 -4,-280 592,-280 592,4 -4,4"/>
<text text-anchor="start" x="273.0091" y="-42.4" font-family="sans-serif" font-weight="bold" font-size="14.00" fill="#000000">Legend</text>
<polygon fill="#ffffb3" stroke="transparent" points="60,-10 60,-30 80,-30 80,-10 60,-10"/>
<text text-anchor="start" x="83.629" y="-15.4" font-family="sans-serif" font-size="14.00" fill="#000000"> &#160;Declarations</text>
<polygon fill="#8dd3c7" stroke="transparent" points="173,-10 173,-30 193,-30 193,-10 173,-10"/>
<text text-anchor="start" x="196.7251" y="-15.4" font-family="sans-serif" font-size="14.00" fill="#000000"> &#160;Module</text>
<polygon fill="#80b1d3" stroke="transparent" points="259,-10 259,-30 279,-30 279,-10 259,-10"/>
<text text-anchor="start" x="282.7812" y="-15.4" font-family="sans-serif" font-size="14.00" fill="#000000"> &#160;Bootstrap</text>
<polygon fill="#fdb462" stroke="transparent" points="356,-10 356,-30 376,-30 376,-10 356,-10"/>
<text text-anchor="start" x="379.6732" y="-15.4" font-family="sans-serif" font-size="14.00" fill="#000000"> &#160;Providers</text>
<polygon fill="#fb8072" stroke="transparent" points="452,-10 452,-30 472,-30 472,-10 452,-10"/>
<text text-anchor="start" x="475.7258" y="-15.4" font-family="sans-serif" font-size="14.00" fill="#000000"> &#160;Exports</text>
<g id="clust1" class="cluster">
<title>cluster_CoreModule</title>
<polygon fill="none" stroke="#000000" stroke-dasharray="1,5" points="8,-70 8,-268 580,-268 580,-70 8,-70"/>
</g>
<g id="clust2" class="cluster">
<title>cluster_CoreModule_declarations</title>
<polygon fill="none" stroke="#000000" points="25,-78 25,-130 566,-130 566,-78 25,-78"/>
</g>
<g id="clust8" class="cluster">
<title>cluster_CoreModule_exports</title>
<polygon fill="none" stroke="#000000" points="16,-208 16,-260 572,-260 572,-208 16,-208"/>
</g>
<!-- AboutComponent -->
<g id="node1" class="node">
<title>AboutComponent</title>
<polygon fill="#ffffb3" stroke="#000000" points="558.3301,-122 441.6699,-122 441.6699,-86 558.3301,-86 558.3301,-122"/>
<text text-anchor="middle" x="500" y="-99.8" font-family="Times,serif" font-size="14.00" fill="#000000">AboutComponent</text>
</g>
<!-- CoreModule -->
<g id="node5" class="node">
<title>CoreModule</title>
<polygon fill="#8dd3c7" stroke="#000000" points="269.2619,-187 266.2619,-191 245.2619,-191 242.2619,-187 182.7381,-187 182.7381,-151 269.2619,-151 269.2619,-187"/>
<text text-anchor="middle" x="226" y="-164.8" font-family="Times,serif" font-size="14.00" fill="#000000">CoreModule</text>
</g>
<!-- AboutComponent&#45;&gt;CoreModule -->
<g id="edge1" class="edge">
<title>AboutComponent&#45;&gt;CoreModule</title>
<path fill="none" stroke="#000000" d="M520.1383,-122.2667C520.1383,-140.5552 520.1383,-166 520.1383,-166 520.1383,-166 279.4011,-166 279.4011,-166"/>
<polygon fill="#000000" stroke="#000000" points="279.4011,-162.5001 269.4011,-166 279.4011,-169.5001 279.4011,-162.5001"/>
</g>
<!-- ContactComponent -->
<g id="node2" class="node">
<title>ContactComponent</title>
<polygon fill="#ffffb3" stroke="#000000" points="423.3795,-122 298.6205,-122 298.6205,-86 423.3795,-86 423.3795,-122"/>
<text text-anchor="middle" x="361" y="-99.8" font-family="Times,serif" font-size="14.00" fill="#000000">ContactComponent</text>
</g>
<!-- ContactComponent&#45;&gt;CoreModule -->
<g id="edge2" class="edge">
<title>ContactComponent&#45;&gt;CoreModule</title>
<path fill="none" stroke="#000000" d="M381.8132,-122.0091C381.8132,-138.0494 381.8132,-159 381.8132,-159 381.8132,-159 279.4027,-159 279.4027,-159"/>
<polygon fill="#000000" stroke="#000000" points="279.4027,-155.5001 269.4027,-159 279.4026,-162.5001 279.4027,-155.5001"/>
</g>
<!-- HomeComponent -->
<g id="node3" class="node">
<title>HomeComponent</title>
<polygon fill="#ffffb3" stroke="#000000" points="280.5451,-122 165.4549,-122 165.4549,-86 280.5451,-86 280.5451,-122"/>
<text text-anchor="middle" x="223" y="-99.8" font-family="Times,serif" font-size="14.00" fill="#000000">HomeComponent</text>
</g>
<!-- HomeComponent&#45;&gt;CoreModule -->
<g id="edge3" class="edge">
<title>HomeComponent&#45;&gt;CoreModule</title>
<path fill="none" stroke="#000000" d="M226,-122.1061C226,-122.1061 226,-140.991 226,-140.991"/>
<polygon fill="#000000" stroke="#000000" points="222.5001,-140.9909 226,-150.991 229.5001,-140.991 222.5001,-140.9909"/>
</g>
<!-- LoginComponent -->
<g id="node4" class="node">
<title>LoginComponent</title>
<polygon fill="#ffffb3" stroke="#000000" points="147.2758,-122 32.7242,-122 32.7242,-86 147.2758,-86 147.2758,-122"/>
<text text-anchor="middle" x="90" y="-99.8" font-family="Times,serif" font-size="14.00" fill="#000000">LoginComponent</text>
</g>
<!-- LoginComponent&#45;&gt;CoreModule -->
<g id="edge4" class="edge">
<title>LoginComponent&#45;&gt;CoreModule</title>
<path fill="none" stroke="#000000" d="M105.6293,-122.0225C105.6293,-139.3734 105.6293,-163 105.6293,-163 105.6293,-163 172.5434,-163 172.5434,-163"/>
<polygon fill="#000000" stroke="#000000" points="172.5434,-166.5001 182.5434,-163 172.5434,-159.5001 172.5434,-166.5001"/>
</g>
<!-- AboutComponent  -->
<g id="node6" class="node">
<title>AboutComponent </title>
<polygon fill="#fb8072" stroke="#000000" points="563.8297,-252 444.1703,-252 444.1703,-216 563.8297,-216 563.8297,-252"/>
<text text-anchor="middle" x="504" y="-229.8" font-family="Times,serif" font-size="14.00" fill="#000000">AboutComponent </text>
</g>
<!-- CoreModule&#45;&gt;AboutComponent  -->
<g id="edge5" class="edge">
<title>CoreModule&#45;&gt;AboutComponent </title>
<path fill="none" stroke="#000000" stroke-dasharray="5,2" d="M269.4459,-173C342.5157,-173 482.1117,-173 482.1117,-173 482.1117,-173 482.1117,-205.698 482.1117,-205.698"/>
<polygon fill="#000000" stroke="#000000" points="478.6118,-205.698 482.1117,-215.698 485.6118,-205.698 478.6118,-205.698"/>
</g>
<!-- ContactComponent  -->
<g id="node7" class="node">
<title>ContactComponent </title>
<polygon fill="#fb8072" stroke="#000000" points="426.38,-252 297.62,-252 297.62,-216 426.38,-216 426.38,-252"/>
<text text-anchor="middle" x="362" y="-229.8" font-family="Times,serif" font-size="14.00" fill="#000000">ContactComponent </text>
</g>
<!-- CoreModule&#45;&gt;ContactComponent  -->
<g id="edge6" class="edge">
<title>CoreModule&#45;&gt;ContactComponent </title>
<path fill="none" stroke="#000000" stroke-dasharray="5,2" d="M269.4949,-180C301.764,-180 340.1868,-180 340.1868,-180 340.1868,-180 340.1868,-205.7181 340.1868,-205.7181"/>
<polygon fill="#000000" stroke="#000000" points="336.6869,-205.718 340.1868,-215.7181 343.6869,-205.7181 336.6869,-205.718"/>
</g>
<!-- HomeComponent  -->
<g id="node8" class="node">
<title>HomeComponent </title>
<polygon fill="#fb8072" stroke="#000000" points="279.5442,-252 160.4558,-252 160.4558,-216 279.5442,-216 279.5442,-252"/>
<text text-anchor="middle" x="220" y="-229.8" font-family="Times,serif" font-size="14.00" fill="#000000">HomeComponent </text>
</g>
<!-- CoreModule&#45;&gt;HomeComponent  -->
<g id="edge7" class="edge">
<title>CoreModule&#45;&gt;HomeComponent </title>
<path fill="none" stroke="#000000" stroke-dasharray="5,2" d="M226,-187.1061C226,-187.1061 226,-205.991 226,-205.991"/>
<polygon fill="#000000" stroke="#000000" points="222.5001,-205.9909 226,-215.991 229.5001,-205.991 222.5001,-205.9909"/>
</g>
<!-- LoginComponent  -->
<g id="node9" class="node">
<title>LoginComponent </title>
<polygon fill="#fb8072" stroke="#000000" points="142.2759,-252 23.7241,-252 23.7241,-216 142.2759,-216 142.2759,-252"/>
<text text-anchor="middle" x="83" y="-229.8" font-family="Times,serif" font-size="14.00" fill="#000000">LoginComponent </text>
</g>
<!-- CoreModule&#45;&gt;LoginComponent  -->
<g id="edge8" class="edge">
<title>CoreModule&#45;&gt;LoginComponent </title>
<path fill="none" stroke="#000000" stroke-dasharray="5,2" d="M182.7168,-175C136.2814,-175 69.1207,-175 69.1207,-175 69.1207,-175 69.1207,-205.9775 69.1207,-205.9775"/>
<polygon fill="#000000" stroke="#000000" points="65.6208,-205.9774 69.1207,-215.9775 72.6208,-205.9775 65.6208,-205.9774"/>
</g>
</g>
</svg>
