<?xml version="1.0" encoding="utf-8"?>
<!DOCTYPE svg PUBLIC "-//W3C//DTD SVG 1.1//EN" "http://www.w3.org/Graphics/SVG/1.1/DTD/svg11.dtd">
<svg version="1.1" id="Layer_1"
  xmlns="http://www.w3.org/2000/svg"
  xmlns:xlink="http://www.w3.org/1999/xlink" x="0px" y="0px" width="31.779px" height="50px" viewBox="0 0 31.779 50" enable-background="new 0 0 31.779 50" xml:space="preserve">
  <path style="fill:#ffffff" d="M0 0L0 214C17.431 214 38.0064 210.954 55 215L51 220L51 308L62 308C64.1119 304.17 66.8395 304.049 71 304C72.1589 312.974 73.8738 331.002 84 334C91.1446 322.121 97.7087 308.113 98 294L105 296C103.71 312.341 98.08 328.579 98.0008 345C97.9643 352.565 97.2005 360.371 105 364L102 369L110 369L107 365L107 364L110 364L110 363C106.516 358.401 109.301 354.131 109.871 349C110.808 340.566 110 331.499 110 323C110 318.932 111.259 312.848 108 310L108 309L108 308L110 297L110 269C117.982 273.401 114 296.657 114 305C127.746 311.866 121.698 339.2 136.971 345.003C143.355 347.428 142.657 333.709 142.91 330C144.06 313.212 139.1 295.382 143 279L119 278L119 277C127.673 275.904 136.874 277.6 144 272L144 277L236 277L237 271C242.294 278.702 251.746 276.568 259 273L259 277L266 277C266.127 273.098 266.599 271.085 270 269L271 277L321 277L321 0L270 0L270 20C263.728 16.5414 266 6.2764 266 0L0 0z"/>
  <path style="fill:#e3f2f5" d="M266 0C266 5.74951 263.432 17.8203 270 20L270 0L266 0z"/>
  <path style="fill:#818aa7" d="M68 35L68 180L68 216L70 229C66.4613 214.136 69 196.256 69 181L69 85C69 70.9618 73.4059 47.883 68 35z"/>
  <path style="fill:#1e3465" d="M69 35L69 228C95.4831 209.345 118.07 179.93 141 157C146.003 151.997 163.793 139.319 163.793 132C163.793 127.117 155.163 121.163 152 118C140.484 106.484 128.398 89.7864 114 82L114 81L185 81L216 80.3966L231 67L262 35L69 35z"/>
  <path style="fill:#bbdbac" d="M287 61C291.665 80.5938 288 104.863 288 125L288 255L289 255L289 110L289 74L287 61z"/>
  <path style="fill:#8bc26f" d="M240 207L240 208C245.635 206.793 243 189.133 243 184L243 130C243 123.292 241.068 112.956 244.639 107C254.88 89.9175 279.883 80.007 288 62C275.208 67.9652 263.951 84.0493 254 94C250.245 97.7545 244.49 101.884 242.603 107C240.705 112.15 242 119.569 242 125L242 163L242 193C242 197.716 242.945 203.112 240 207z"/>
  <path style="fill:#63bc46" d="M243 208C222.847 197.242 211.97 166.469 190 159C174.181 181.457 149.44 200.56 130 220C123.845 226.155 109.387 235.909 109 245C106.583 244.964 98.5159 248.327 101.89 251.972C104.016 254.269 111.167 253 114 253L148 253L287 253L287 129L288 64C275.559 69.8015 264.674 85.3259 255 95C250.962 99.0382 245.21 103.291 243.573 109C240.858 118.464 243 131.184 243 141L243 208z"/>
  <path style="fill:#75b459" d="M287 66L287 253L151 253L116 253C112.49 253 105.542 254.299 102.582 252.062C98.7697 249.181 107.052 245.44 109 245C109.93 236.455 124.096 226.904 130 221C149.44 201.56 174.181 182.457 190 160C178.263 165.473 168.12 179.88 159 189C137.974 210.026 111.108 230.713 94 255L163 254L288 254L288 122L288 84L287 66z"/>
  <path style="fill:#8c98b0" d="M114 81L114 82L216 82L185 81L114 81z"/>
  <path style="fill:#bac5d7" d="M118.667 85.3333L119.333 85.6667L118.667 85.3333z"/>
  <path style="fill:#d1edc7" d="M241 107L241 172L240 207C244.556 203.019 242 188.833 242 183L242 131C242 123.784 243.802 113.678 241 107z"/>
  <path style="fill:#abb1bd" d="M165.333 131.667L165.667 132.333L165.333 131.667z"/>
  <path style="fill:#b9d7b5" d="M189 160L192 159L189 160z"/>
  <path style="fill:#f4ffff" d="M0 214L0 374L267 374L267 372L199 372L199 371L267 370L267 339L271 340L270 370L321 370L321 277L271 277L270 269C266.06 270.584 266.047 273.014 266 277L259 277L259 273L256 276C248.274 276 242.606 276.928 237 271L236 277L144 277L144 272L119 277L119 278L143 279C141.694 283.42 140.714 291.229 142.589 295.621C144.16 299.303 148.117 301.066 149.182 305.289C151.693 315.249 149.313 333.095 146.701 343C140.921 364.915 121.945 335.078 120 326L118 326L114 364L107 364L107 365L110 369L102 369L92.8981 358L94 328L93 328C83.7754 346.543 74.0452 337.479 69 322C63.6368 327.079 61.4797 342.684 61.2137 349.996C61.0991 353.148 64.8466 357.916 62.4622 360.522C57.1019 366.381 55.9225 352.614 56.1713 350C57.6214 334.762 63 320.493 63 305L62 305L62 308L51 308L51 220L55 215C38.7593 210.2 16.8875 214 0 214z"/>
  <path style="fill:#85ba74" d="M97 254L97 255L288 255L270 254L231 254L97 254z"/>
  <path style="fill:#e1f3f7" d="M110 269C110 278.795 113.953 300.142 108 308L108 309L108 310C113.898 317.786 109.807 338.332 110 348C117.391 330.866 114 306.259 114 288C114 282.387 116.446 271.139 110 269z"/>
  <path style="fill:#d0d8e5" d="M98 294L98 299L99 299L98 294z"/>
  <path style="fill:#9299ab" d="M99 294L99 295L102 296L99 294z"/>
  <path style="fill:#1f3163" d="M99 295L84 334C77.0926 330.774 74.0528 323.093 72.3534 315.996C71.6625 313.111 71.7777 305.977 68.5856 304.662C62.8144 302.284 63.7175 315.113 63.267 317.996C60.9395 332.893 54.2377 347.977 59 363L63.2693 358.981L61.2245 350.985L66 317L69 317C69.5327 323.513 74.4823 344.937 84.8156 339.664C90.3747 336.826 91.3946 328.958 96 325C93.5672 335.643 87.9692 365.81 104 366C102.524 361.498 98.2997 358.959 97.3403 354C94.8458 341.107 99.4136 325.774 101.209 313C102.02 307.232 106.225 297.904 99 295z"/>
  <path style="fill:#545d7e" d="M103 296L103 304L104 304L103 296z"/>
  <path style="fill:#bdc4d6" d="M104 296L104 301L105 301L104 296z"/>
  <path style="fill:#798293" d="M141 297L141 301L142 301L144 298L141 297z"/>
  <path style="fill:#203560" d="M142 298C145.63 315.626 143.378 329.338 141 347C130.501 343.895 124.938 329.671 122.175 320.09C120.553 314.465 119.558 306.085 113 305C113.7 321.315 113.996 334.714 110.664 351C109.648 355.965 107.686 361.943 114 363L117 326C126.181 330.589 126.486 352.481 139.906 350.833C144.858 350.224 146.106 344.107 146.7 340C148.124 330.145 149.289 315.597 148.608 305.91C148.313 301.706 146.003 298.692 142 298z"/>
  <path style="fill:#a3b0c1" d="M97.3333 300.667L97.6667 301.333L97.3333 300.667z"/>
  <path style="fill:#8d98b4" d="M147 300L147 303L148 303L147 300z"/>
  <path style="fill:#8190a3" d="M143 302L143 306L144 306L143 302z"/>
  <path style="fill:#626e7c" d="M298 302L298 303L302 303L298 302z"/>
  <path style="fill:#1f3660" d="M268 320L298 307C295.078 312.996 292.216 325.39 286.856 329.258C280.486 333.854 267.826 326.402 267 337L286 335C284.548 340.043 271.844 365.966 285 364L285 362L282 361C285.323 344.942 287.722 333.002 306 333C302.989 328.738 296.734 330 292 330L304 303C294.01 303.028 269.898 308.267 268 320z"/>
  <path style="fill:#7883a1" d="M63 304L62 324L63 324L65 304L63 304z"/>
  <path style="fill:#a1b2c6" d="M70.3333 304.667L70.6667 305.333L70.3333 304.667z"/>
  <path style="fill:#cbd6ec" d="M103 304L102 312L103 312L103 304z"/>
  <path style="fill:#b6c2d0" d="M149.333 304.667L149.667 305.333L149.333 304.667z"/>
  <path style="fill:#9fb9d4" d="M112 306L112 310L113 310L112 306z"/>
  <path style="fill:#cfdbe9" d="M143 306L143 320L144 320L143 306z"/>
  <path style="fill:#727e8c" d="M149 306L149 309L150 309L149 306z"/>
  <path style="fill:#7e8dac" d="M71 307L73 322L74 322L71 307z"/>
  <path style="fill:#afb7ca" d="M95 307L95 310L96 310L95 307z"/>
  <path style="fill:#7a82a6" d="M118.333 307.667L118.667 308.333L118.333 307.667z"/>
  <path style="fill:#5f6f93" d="M144 307L144 326L145 326L144 307z"/>
  <path style="fill:#26325c" d="M185 325L205 313C200.867 328.481 194.408 343.234 188.284 358C186.646 361.949 183.734 370.852 190.133 372.333C195.369 373.546 201.002 368.318 205 365.667C213.219 360.218 223.175 353.746 233 352L233 349C217.322 349.367 202.763 361.06 190 369C190.843 349.673 210.089 332.156 208.926 313.04C208.143 300.174 185.592 317.504 185 325z"/>
  <path style="fill:#939db8" d="M236 307L237 308L236 307z"/>
  <path style="fill:#263554" d="M242 313L234 336C239.965 335.727 247.152 330.79 252.926 332.218C259.821 333.924 252.207 341.714 249.907 344C242.124 351.733 224.597 357.797 220 367C233.317 366.308 246.243 354.051 255.01 344.996C258.282 341.617 264.241 334.747 259.397 329.995C255.225 325.902 248.144 327.957 243 328C244.008 325.382 245.188 322.78 245.671 320C248.502 303.718 232.636 307.247 225.349 316.004C224.003 317.621 219.591 324.274 224.274 325.079C227.214 325.584 228.963 321.175 230.495 319.427C233.673 315.801 237.238 313.53 242 313z"/>
  <path style="fill:#6a7690" d="M239.667 307.333L240.333 307.667L239.667 307.333z"/>
  <path style="fill:#90a2ca" d="M297.333 307.667L297.667 308.333L297.333 307.667z"/>
  <path style="fill:#8391ac" d="M243 308L245 311L243 308z"/>
  <path style="fill:#576683" d="M147 309L147 329L148 329L147 309z"/>
  <path style="fill:#c3cfe5" d="M148 309L148 329L149 329L148 309z"/>
  <path style="fill:#afbbc9" d="M209 309L209 317L210 317L209 309z"/>
  <path style="fill:#aeb3c9" d="M288.667 309.333L289.333 309.667L288.667 309.333z"/>
  <path style="fill:#8695aa" d="M101 310L101 318L102 318L101 310z"/>
  <path style="fill:#97b2c3" d="M113 310L113 316L114 316L113 310z"/>
  <path style="fill:#727fa2" d="M119.333 310.667L119.667 311.333L119.333 310.667z"/>
  <path style="fill:#7d88a6" d="M300.333 311.667L300.667 312.333L300.333 311.667z"/>
  <path style="fill:#5c6a84" d="M120 312L120 317L121 317L120 312z"/>
  <path style="fill:#555881" d="M246 312L246 320L247 320L246 312z"/>
  <path style="fill:#b3bfd9" d="M93 313L93 316L94 316L93 313z"/>
  <path style="fill:#c8d4e0" d="M121 313L121 317L122 317L121 313z"/>
  <path style="fill:#738ba3" d="M204.333 313.667L204.667 314.333L204.333 313.667z"/>
  <path style="fill:#6a81aa" d="M241.333 313.667L241.667 314.333L241.333 313.667z"/>
  <path style="fill:#757c99" d="M203 315L203 320L204 320L203 315z"/>
  <path style="fill:#4a6183" d="M225 315L224 318L225 315z"/>
  <path style="fill:#afb5cf" d="M247 315L247 319L248 319L247 315z"/>
  <path style="fill:#8792a8" d="M293 315L293 318L294 318L293 315z"/>
  <path style="fill:#b1bdd5" d="M92 316L92 319L93 319L92 316z"/>
  <path style="fill:#6b7b9d" d="M114 316L114 331L115 331L114 316z"/>
  <path style="fill:#6e7a94" d="M267 316L267 319L268 319L267 316z"/>
  <path style="fill:#707e99" d="M66 317L66 324L67 324L69 318L66 317z"/>
  <path style="fill:#24365e" d="M175 348L161 351C163.014 360.222 178.465 353.576 178.808 346C179.331 334.419 145.698 338.714 164.995 326.264C166.97 324.99 168.738 324.45 171 324L171 317C164.032 318.344 145.322 330.89 155.318 339.157C161.419 344.202 170.829 340.046 175 348z"/>
  <path style="fill:#536080" d="M171 317L171 322L172 322L171 317z"/>
  <path style="fill:#7d91b6" d="M241 317L241 321L242 321L241 317z"/>
  <path style="fill:#d2e0fa" d="M67 318L67 324L68 324L67 318z"/>
  <path style="fill:#93a9d2" d="M68.3333 318.667L68.6667 319.333L68.3333 318.667z"/>
  <path style="fill:#b4bbd5" d="M122.333 318.667L122.667 319.333L122.333 318.667z"/>
  <path style="fill:#aebac8" d="M208.333 318.667L208.667 319.333L208.333 318.667z"/>
  <path style="fill:#8691a3" d="M229 319L229 321L231 319L229 319z"/>
  <path style="fill:#65749b" d="M122.333 320.667L122.667 321.333L122.333 320.667z"/>
  <path style="fill:#a7b2c6" d="M143 320L143 333L144 333L143 320z"/>
  <path style="fill:#93a4b4" d="M207 320L207 323L208 323L207 320z"/>
  <path style="fill:#a6aec1" d="M221 320L221 324L222 324L221 320z"/>
  <path style="fill:#b1b8ca" d="M246 320L246 323L247 323L246 320z"/>
  <path style="fill:#acb9c9" d="M269.667 320.333L270.333 320.667L269.667 320.333z"/>
  <path style="fill:#9aa5c3" d="M69 321L69 324L70 324L69 321z"/>
  <path style="fill:#9daaba" d="M100 321L100 326L101 326L100 321z"/>
  <path style="fill:#a8b0d4" d="M123.333 321.667L123.667 322.333L123.333 321.667z"/>
  <path style="fill:#7d7f98" d="M184 321L184 325L185 325L184 321z"/>
  <path style="fill:#aebcdf" d="M240 321L240 324L241 324L240 321z"/>
  <path style="fill:#666e83" d="M245.333 321.667L245.667 322.333L245.333 321.667z"/>
  <path style="fill:#b0bad5" d="M61.3333 322.667L61.6667 323.333L61.3333 322.667z"/>
  <path style="fill:#b8c3d5" d="M201 322L201 325L202 325L201 322z"/>
  <path style="fill:#747b98" d="M290.333 322.667L290.667 323.333L290.333 322.667z"/>
  <path style="fill:#646895" d="M294 322L294 325L295 325L294 322z"/>
  <path style="fill:#8894ac" d="M75.3333 323.667L75.6667 324.333L75.3333 323.667z"/>
  <path style="fill:#8a96b0" d="M89 323L89 326L90 326L89 323z"/>
  <path style="fill:#7d82a2" d="M123 323L124 327L125 327L123 323z"/>
  <path style="fill:#949cb3" d="M65 324L65 329L66 329L65 324z"/>
  <path style="fill:#8391ac" d="M206 324L205 328L206 328L206 324z"/>
  <path style="fill:#5b6b84" d="M239 324L238 328L239 328L239 324z"/>
  <path style="fill:#8b96b2" d="M244.333 324.667L244.667 325.333L244.333 324.667z"/>
  <path style="fill:#58677e" d="M289 324L289 328L290 328L289 324z"/>
  <path style="fill:#afbace" d="M70.3333 325.667L70.6667 326.333L70.3333 325.667z"/>
  <path style="fill:#4e667e" d="M94 325L95 328L96 328L96 325L94 325z"/>
  <path style="fill:#777b96" d="M185 325L185 326L188 326L185 325z"/>
  <path style="fill:#6e789b" d="M76.3333 326.667L76.6667 327.333L76.3333 326.667z"/>
  <path style="fill:#9bb1c6" d="M93 326L94 331L95 331L93 326z"/>
  <path style="fill:#596887" d="M117 326L117 332L118 332L117 326z"/>
  <path style="fill:#8793ab" d="M200.333 326.667L200.667 327.333L200.333 326.667z"/>
  <path style="fill:#91a4cf" d="M243.333 326.667L243.667 327.333L243.333 326.667z"/>
  <path style="fill:#b0bccc" d="M288 326L288 329L289 329L288 326z"/>
  <path style="fill:#536073" d="M292 326L292 330L293 330L292 326z"/>
  <path style="fill:#8d98ae" d="M71 327L71 330L72 330L71 327z"/>
  <path style="fill:#a0adc0" d="M120 327L120 330L121 330L120 327z"/>
  <path style="fill:#4d5b75" d="M247 327L247 328L251 328L247 327z"/>
  <path style="fill:#8d99b1" d="M254.667 327.333L255.333 327.667L254.667 327.333z"/>
  <path style="fill:#708099" d="M60 328L60 332L61 332L60 328z"/>
  <path style="fill:#6f7d9a" d="M77.3333 328.667L77.6667 329.333L77.3333 328.667z"/>
  <path style="fill:#8a9abc" d="M92.3333 328.667L92.6667 329.333L92.3333 328.667z"/>
  <path style="fill:#bbc6dc" d="M99 328L99 334L100 334L99 328z"/>
  <path style="fill:#606b7f" d="M121 328L121 331L122 331L121 328z"/>
  <path style="fill:#b2bbd8" d="M199 328L199 331L200 331L199 328z"/>
  <path style="fill:#a2b2c1" d="M204.333 328.667L204.667 329.333L204.333 328.667z"/>
  <path style="fill:#788492" d="M64 329L64 335L65 335L64 329z"/>
  <path style="fill:#6d7c9b" d="M126 329L126 332L127 332L126 329z"/>
  <path style="fill:#a4aac2" d="M147 329L147 338L148 338L147 329z"/>
  <path style="fill:#8896a3" d="M72.3333 330.667L72.6667 331.333L72.3333 330.667z"/>
  <path style="fill:#8a99ac" d="M91.3333 330.667L91.6667 331.333L91.3333 330.667z"/>
  <path style="fill:#505d7f" d="M98 330L98 334L99 334L98 330z"/>
  <path style="fill:#bfcde8" d="M127 330L128 334L129 334L127 330z"/>
  <path style="fill:#8598a7" d="M203.333 330.667L203.667 331.333L203.333 330.667z"/>
  <path style="fill:#92a1b8" d="M235 330L236 331L235 330z"/>
  <path style="fill:#adb9d1" d="M280.667 330.333L281.333 330.667L280.667 330.333z"/>
  <path style="fill:#727e98" d="M282 330L282 331L286 331L282 330z"/>
  <path style="fill:#8f94b2" d="M122 331L122 334L123 334L122 331z"/>
  <path style="fill:#5f6c8f" d="M152 331L152 336L153 336L152 331z"/>
  <path style="fill:#919abb" d="M198.333 331.667L198.667 332.333L198.333 331.667z"/>
  <path style="fill:#8695b4" d="M251.667 331.333L252.333 331.667L251.667 331.333z"/>
  <path style="fill:#617085" d="M261 331L261 336L262 336L261 331z"/>
  <path style="fill:#cdd3e1" d="M262 331L262 335L263 335L262 331z"/>
  <path style="fill:#a5a3b0" d="M306.333 331.667L306.667 332.333L306.333 331.667z"/>
  <path style="fill:#8390b0" d="M59 332L59 338L60 338L59 332z"/>
  <path style="fill:#a5adc2" d="M117 332L117 337L118 337L117 332z"/>
  <path style="fill:#8b9cba" d="M157 332L157 335L158 335L157 332z"/>
  <path style="fill:#5b667a" d="M233 332L233 336L234 336L233 332z"/>
  <path style="fill:#8c9eb4" d="M266 332L266 336L267 336L266 332z"/>
  <path style="fill:#92a7ba" d="M73 333L75 336L73 333z"/>
  <path style="fill:#a6b0c9" d="M93 333L93 338L94 338L93 333z"/>
  <path style="fill:#bdc9df" d="M142 333L142 340L143 340L142 333z"/>
  <path style="fill:#a5acbc" d="M197 333L197 336L198 336L197 333z"/>
  <path style="fill:#70799a" d="M295 333L295 334L299 334L295 333z"/>
  <path style="fill:#c4cfe5" d="M299 333L299 334L305 334L299 333z"/>
  <path style="fill:#96a1bd" d="M98 334L98 338L99 338L98 334z"/>
  <path style="fill:#9eb2d3" d="M112 334L112 340L113 340L112 334z"/>
  <path style="fill:#8c9ab4" d="M123 334L124 338L125 338L123 334z"/>
  <path style="fill:#757c99" d="M128.333 334.667L128.667 335.333L128.333 334.667z"/>
  <path style="fill:#99aabc" d="M291.667 334.333L292.333 334.667L291.667 334.333z"/>
  <path style="fill:#6c7b9a" d="M63 335L63 339L64 339L63 335z"/>
  <path style="fill:#909cb6" d="M285 335L284 340L285 340L285 335z"/>
  <path style="fill:#b7c1cb" d="M152.333 336.667L152.667 337.333L152.333 336.667z"/>
  <path style="fill:#6c727e" d="M234.667 336.333L235.333 336.667L234.667 336.333z"/>
  <path style="fill:#8996a6" d="M272 336L272 337L277 337L272 336z"/>
  <path style="fill:#a6a9b8" d="M289.333 336.667L289.667 337.333L289.333 336.667z"/>
  <path style="fill:#8e9eb7" d="M116 337L115 346L116 346L116 337z"/>
  <path style="fill:#8d9aba" d="M130 337L130 340L131 340L130 337z"/>
  <path style="fill:#9aa8c2" d="M58 338L58 341L59 341L58 338z"/>
  <path style="fill:#3f4e6f" d="M93 338L93 358L94 358L93 338z"/>
  <path style="fill:#a1acc0" d="M97 338L97 354L98 354L97 338z"/>
  <path style="fill:#afbed1" d="M125.333 338.667L125.667 339.333L125.333 338.667z"/>
  <path style="fill:#7a8299" d="M288 338L288 341L289 341L288 338z"/>
  <path style="fill:#75809c" d="M195.333 339.667L195.667 340.333L195.333 339.667z"/>
  <path style="fill:#617091" d="M199 339L199 342L200 342L199 339z"/>
  <path style="fill:#e0eff4" d="M267 339L267 370L199 371L199 372L321 374L321 370L270 370C270 362.891 266.93 345.427 271 340L267 339z"/>
  <path style="fill:#78849c" d="M283.333 340.667L283.667 341.333L283.333 340.667z"/>
  <path style="fill:#7988a5" d="M111 341L111 348L112 348L111 341z"/>
  <path style="fill:#b8c3d7" d="M146 341L145 347L146 347L146 341z"/>
  <path style="fill:#929bb8" d="M194 341L194 344L195 344L194 341z"/>
  <path style="fill:#818da5" d="M57 342L57 347L58 347L57 342z"/>
  <path style="fill:#9ea5bf" d="M92 342L92 357L93 357L92 342z"/>
  <path style="fill:#7e8ca7" d="M198.333 342.667L198.667 343.333L198.333 342.667z"/>
  <path style="fill:#92a0ba" d="M282.333 342.667L282.667 343.333L282.333 342.667z"/>
  <path style="fill:#718095" d="M179 343L179 347L180 347L179 343z"/>
  <path style="fill:#8091af" d="M286 343L286 346L287 346L286 343z"/>
  <path style="fill:#8890b7" d="M193.333 344.667L193.667 345.333L193.333 344.667z"/>
  <path style="fill:#657489" d="M197.333 344.667L197.667 345.333L197.333 344.667z"/>
  <path style="fill:#99a9c3" d="M281 344L281 348L282 348L281 344z"/>
  <path style="fill:#b0b7d4" d="M130.333 345.667L130.667 346.333L130.333 345.667z"/>
  <path style="fill:#939ab6" d="M174 345L174 348L175 348L174 345z"/>
  <path style="fill:#c1d1e8" d="M137 346L137 347L141 347L137 346z"/>
  <path style="fill:#8890b5" d="M192 346L192 349L193 349L192 346z"/>
  <path style="fill:#7f8cac" d="M56 347L56 358L57 358L56 347z"/>
  <path style="fill:#92a1b4" d="M196.333 347.667L196.667 348.333L196.333 347.667z"/>
  <path style="fill:#939bb2" d="M110 348L110 352L111 352L110 348z"/>
  <path style="fill:#6c7489" d="M229 348L229 349L232 349L229 348z"/>
  <path style="fill:#c3cbe2" d="M251 348L250 351L251 348z"/>
  <path style="fill:#8493b0" d="M280 348L280 352L281 352L280 348z"/>
  <path style="fill:#9aa3c0" d="M114 349L114 362L115 362L114 349z"/>
  <path style="fill:#667791" d="M233 349L233 352L234 352L233 349z"/>
  <path style="fill:#b4bbcd" d="M190 350L190 353L191 353L190 350z"/>
  <path style="fill:#b7c2d6" d="M234.333 350.667L234.667 351.333L234.333 350.667z"/>
  <path style="fill:#51607f" d="M137 351L137 352L141 352L137 351z"/>
  <path style="fill:#808db0" d="M160 351L162 355L160 351z"/>
  <path style="fill:#7e8ca9" d="M109 352L109 359L110 359L109 352z"/>
  <path style="fill:#95a7b5" d="M194.333 352.667L194.667 353.333L194.333 352.667z"/>
  <path style="fill:#81839c" d="M229 352L229 353L232 353L229 352z"/>
  <path style="fill:#bfc8d7" d="M108 353L110 363L108 353z"/>
  <path style="fill:#9bacbc" d="M189 353L189 356L190 356L189 353z"/>
  <path style="fill:#8990ad" d="M278 353L279 364L280 364L278 353z"/>
  <path style="fill:#8694af" d="M61.3333 354.667L61.6667 355.333L61.3333 354.667z"/>
  <path style="fill:#747c91" d="M97.3333 354.667L97.6667 355.333L97.3333 354.667z"/>
  <path style="fill:#a2a2ba" d="M193 354L192 359L193 359L193 354z"/>
  <path style="fill:#b2c1de" d="M283 354L283 361L284 361L283 354z"/>
  <path style="fill:#adb8d4" d="M166.667 355.333L167.333 355.667L166.667 355.333z"/>
  <path style="fill:#969eb5" d="M63.3333 356.667L63.6667 357.333L63.3333 356.667z"/>
  <path style="fill:#8994a6" d="M98 356L98 359L99 359L98 356z"/>
  <path style="fill:#778495" d="M188.333 356.667L188.667 357.333L188.333 356.667z"/>
  <path style="fill:#62728b" d="M57.3333 358.667L57.6667 359.333L57.3333 358.667z"/>
  <path style="fill:#b4b7c0" d="M64.3333 358.667L64.6667 359.333L64.3333 358.667z"/>
  <path style="fill:#9ca3b5" d="M93 358L95 364L96 364L93 358z"/>
  <path style="fill:#8d95ac" d="M187.333 358.667L187.667 359.333L187.333 358.667z"/>
  <path style="fill:#aec0d8" d="M206.667 358.333L207.333 358.667L206.667 358.333z"/>
  <path style="fill:#5d6f93" d="M282 358L282 361L283 361L282 358z"/>
  <path style="fill:#8f98b9" d="M191.333 359.667L191.667 360.333L191.333 359.667z"/>
  <path style="fill:#99a6b7" d="M57 360L59 363L57 360z"/>
  <path style="fill:#acb3cd" d="M186 360L186 363L187 363L186 360z"/>
  <path style="fill:#b0c3d4" d="M112.667 363.333L113.333 363.667L112.667 363.333z"/>
  <path style="fill:#b1c3d1" d="M190 363L190 369L191 369L190 363z"/>
  <path style="fill:#828395" d="M104.333 364.667L104.667 365.333L104.333 364.667z"/>
  <path style="fill:#99a7b4" d="M185 364L185 369L186 369L185 364z"/>
  <path style="fill:#a5aebd" d="M219 364L219 366L221 364L219 364z"/>
  <path style="fill:#6e768b" d="M101 366L101 367L104 367L101 366z"/>
  <path style="fill:#708c98" d="M221 367L221 368L224 368L221 367z"/>
  <path style="fill:#8292ab" d="M186.333 369.667L186.667 370.333L186.333 369.667z"/>
</svg>
