<?xml version="1.0" encoding="UTF-8" standalone="no"?>
<!DOCTYPE svg PUBLIC "-//W3C//DTD SVG 1.1//EN"
 "http://www.w3.org/Graphics/SVG/1.1/DTD/svg11.dtd">
<!-- Generated by graphviz version 2.40.1 (20161225.0304)
 -->
<!-- Title: dependencies Pages: 1 -->
<svg width="504pt" height="211pt"
 viewBox="0.00 0.00 504.00 211.00" xmlns="http://www.w3.org/2000/svg" xmlns:xlink="http://www.w3.org/1999/xlink">
<g id="graph0" class="graph" transform="scale(1 1) rotate(0) translate(4 207)">
<title>dependencies</title>
<polygon fill="#ffffff" stroke="transparent" points="-4,4 -4,-207 500,-207 500,4 -4,4"/>
<text text-anchor="start" x="227.0091" y="-42.4" font-family="sans-serif" font-weight="bold" font-size="14.00" fill="#000000">Legend</text>
<polygon fill="#ffffb3" stroke="transparent" points="14,-10 14,-30 34,-30 34,-10 14,-10"/>
<text text-anchor="start" x="37.629" y="-15.4" font-family="sans-serif" font-size="14.00" fill="#000000"> &#160;Declarations</text>
<polygon fill="#8dd3c7" stroke="transparent" points="127,-10 127,-30 147,-30 147,-10 127,-10"/>
<text text-anchor="start" x="150.7251" y="-15.4" font-family="sans-serif" font-size="14.00" fill="#000000"> &#160;Module</text>
<polygon fill="#80b1d3" stroke="transparent" points="213,-10 213,-30 233,-30 233,-10 213,-10"/>
<text text-anchor="start" x="236.7812" y="-15.4" font-family="sans-serif" font-size="14.00" fill="#000000"> &#160;Bootstrap</text>
<polygon fill="#fdb462" stroke="transparent" points="310,-10 310,-30 330,-30 330,-10 310,-10"/>
<text text-anchor="start" x="333.6732" y="-15.4" font-family="sans-serif" font-size="14.00" fill="#000000"> &#160;Providers</text>
<polygon fill="#fb8072" stroke="transparent" points="406,-10 406,-30 426,-30 426,-10 406,-10"/>
<text text-anchor="start" x="429.7258" y="-15.4" font-family="sans-serif" font-size="14.00" fill="#000000"> &#160;Exports</text>
<g id="clust1" class="cluster">
<title>cluster_BlogModule</title>
<polygon fill="none" stroke="#000000" stroke-dasharray="1,5" points="23,-70 23,-195 473,-195 473,-70 23,-70"/>
</g>
<g id="clust2" class="cluster">
<title>cluster_BlogModule_declarations</title>
<polygon fill="none" stroke="#000000" points="153,-78 153,-130 465,-130 465,-78 153,-78"/>
</g>
<g id="clust5" class="cluster">
<title>cluster_BlogModule_imports</title>
<polygon fill="none" stroke="#000000" points="31,-78 31,-130 145,-130 145,-78 31,-78"/>
</g>
<!-- BlogListComponent -->
<g id="node1" class="node">
<title>BlogListComponent</title>
<polygon fill="#ffffb3" stroke="#000000" points="457.3384,-122 326.6616,-122 326.6616,-86 457.3384,-86 457.3384,-122"/>
<text text-anchor="middle" x="392" y="-99.8" font-family="Times,serif" font-size="14.00" fill="#000000">BlogListComponent</text>
</g>
<!-- BlogModule -->
<g id="node3" class="node">
<title>BlogModule</title>
<polygon fill="#8dd3c7" stroke="#000000" points="278.2773,-187 275.2773,-191 254.2773,-191 251.2773,-187 191.7227,-187 191.7227,-151 278.2773,-151 278.2773,-187"/>
<text text-anchor="middle" x="235" y="-164.8" font-family="Times,serif" font-size="14.00" fill="#000000">BlogModule</text>
</g>
<!-- BlogListComponent&#45;&gt;BlogModule -->
<g id="edge1" class="edge">
<title>BlogListComponent&#45;&gt;BlogModule</title>
<path fill="none" stroke="#000000" d="M392,-122.1061C392,-141.3391 392,-169 392,-169 392,-169 288.3165,-169 288.3165,-169"/>
<polygon fill="#000000" stroke="#000000" points="288.3166,-165.5001 278.3165,-169 288.3165,-172.5001 288.3166,-165.5001"/>
</g>
<!-- TopicDetailComponent -->
<g id="node2" class="node">
<title>TopicDetailComponent</title>
<polygon fill="#ffffb3" stroke="#000000" points="309.1979,-122 160.8021,-122 160.8021,-86 309.1979,-86 309.1979,-122"/>
<text text-anchor="middle" x="235" y="-99.8" font-family="Times,serif" font-size="14.00" fill="#000000">TopicDetailComponent</text>
</g>
<!-- TopicDetailComponent&#45;&gt;BlogModule -->
<g id="edge2" class="edge">
<title>TopicDetailComponent&#45;&gt;BlogModule</title>
<path fill="none" stroke="#000000" d="M235,-122.1061C235,-122.1061 235,-140.991 235,-140.991"/>
<polygon fill="#000000" stroke="#000000" points="231.5001,-140.9909 235,-150.991 238.5001,-140.991 231.5001,-140.9909"/>
</g>
<!-- SharedModule -->
<g id="node4" class="node">
<title>SharedModule</title>
<polygon fill="#8dd3c7" stroke="#000000" points="137.4231,-122 134.4231,-126 113.4231,-126 110.4231,-122 38.5769,-122 38.5769,-86 137.4231,-86 137.4231,-122"/>
<text text-anchor="middle" x="88" y="-99.8" font-family="Times,serif" font-size="14.00" fill="#000000">SharedModule</text>
</g>
<!-- SharedModule&#45;&gt;BlogModule -->
<g id="edge3" class="edge">
<title>SharedModule&#45;&gt;BlogModule</title>
<path fill="none" stroke="#000000" d="M88,-122.1061C88,-141.3391 88,-169 88,-169 88,-169 181.6902,-169 181.6902,-169"/>
<polygon fill="#000000" stroke="#000000" points="181.6903,-172.5001 191.6902,-169 181.6902,-165.5001 181.6903,-172.5001"/>
</g>
</g>
</svg>
