<?xml version="1.0" encoding="UTF-8" standalone="no"?>
<!DOCTYPE svg PUBLIC "-//W3C//DTD SVG 1.1//EN"
 "http://www.w3.org/Graphics/SVG/1.1/DTD/svg11.dtd">
<!-- Generated by graphviz version 2.40.1 (20161225.0304)
 -->
<!-- Title: dependencies Pages: 1 -->
<svg width="504pt" height="211pt"
 viewBox="0.00 0.00 504.00 211.00" xmlns="http://www.w3.org/2000/svg" xmlns:xlink="http://www.w3.org/1999/xlink">
<g id="graph0" class="graph" transform="scale(1 1) rotate(0) translate(4 207)">
<title>dependencies</title>
<polygon fill="#ffffff" stroke="transparent" points="-4,4 -4,-207 500,-207 500,4 -4,4"/>
<text text-anchor="start" x="227.0091" y="-42.4" font-family="sans-serif" font-weight="bold" font-size="14.00" fill="#000000">Legend</text>
<polygon fill="#ffffb3" stroke="transparent" points="14,-10 14,-30 34,-30 34,-10 14,-10"/>
<text text-anchor="start" x="37.629" y="-15.4" font-family="sans-serif" font-size="14.00" fill="#000000"> &#160;Declarations</text>
<polygon fill="#8dd3c7" stroke="transparent" points="127,-10 127,-30 147,-30 147,-10 127,-10"/>
<text text-anchor="start" x="150.7251" y="-15.4" font-family="sans-serif" font-size="14.00" fill="#000000"> &#160;Module</text>
<polygon fill="#80b1d3" stroke="transparent" points="213,-10 213,-30 233,-30 233,-10 213,-10"/>
<text text-anchor="start" x="236.7812" y="-15.4" font-family="sans-serif" font-size="14.00" fill="#000000"> &#160;Bootstrap</text>
<polygon fill="#fdb462" stroke="transparent" points="310,-10 310,-30 330,-30 330,-10 310,-10"/>
<text text-anchor="start" x="333.6732" y="-15.4" font-family="sans-serif" font-size="14.00" fill="#000000"> &#160;Providers</text>
<polygon fill="#fb8072" stroke="transparent" points="406,-10 406,-30 426,-30 426,-10 406,-10"/>
<text text-anchor="start" x="429.7258" y="-15.4" font-family="sans-serif" font-size="14.00" fill="#000000"> &#160;Exports</text>
<g id="clust1" class="cluster">
<title>cluster_BlogModule</title>
<polygon fill="none" stroke="#000000" stroke-dasharray="1,5" points="106,-70 106,-195 390,-195 390,-70 106,-70"/>
</g>
<g id="clust2" class="cluster">
<title>cluster_BlogModule_declarations</title>
<polygon fill="none" stroke="#000000" points="236,-78 236,-130 382,-130 382,-78 236,-78"/>
</g>
<g id="clust4" class="cluster">
<title>cluster_BlogModule_imports</title>
<polygon fill="none" stroke="#000000" points="114,-78 114,-130 228,-130 228,-78 114,-78"/>
</g>
<!-- BlogListComponent -->
<g id="node1" class="node">
<title>BlogListComponent</title>
<polygon fill="#ffffb3" stroke="#000000" points="374.3384,-122 243.6616,-122 243.6616,-86 374.3384,-86 374.3384,-122"/>
<text text-anchor="middle" x="309" y="-99.8" font-family="Times,serif" font-size="14.00" fill="#000000">BlogListComponent</text>
</g>
<!-- BlogModule -->
<g id="node2" class="node">
<title>BlogModule</title>
<polygon fill="#8dd3c7" stroke="#000000" points="283.2773,-187 280.2773,-191 259.2773,-191 256.2773,-187 196.7227,-187 196.7227,-151 283.2773,-151 283.2773,-187"/>
<text text-anchor="middle" x="240" y="-164.8" font-family="Times,serif" font-size="14.00" fill="#000000">BlogModule</text>
</g>
<!-- BlogListComponent&#45;&gt;BlogModule -->
<g id="edge1" class="edge">
<title>BlogListComponent&#45;&gt;BlogModule</title>
<path fill="none" stroke="#000000" d="M263.6097,-122.1061C263.6097,-122.1061 263.6097,-140.991 263.6097,-140.991"/>
<polygon fill="#000000" stroke="#000000" points="260.1098,-140.9909 263.6097,-150.991 267.1098,-140.991 260.1098,-140.9909"/>
</g>
<!-- SharedModule -->
<g id="node3" class="node">
<title>SharedModule</title>
<polygon fill="#8dd3c7" stroke="#000000" points="220.4231,-122 217.4231,-126 196.4231,-126 193.4231,-122 121.5769,-122 121.5769,-86 220.4231,-86 220.4231,-122"/>
<text text-anchor="middle" x="171" y="-99.8" font-family="Times,serif" font-size="14.00" fill="#000000">SharedModule</text>
</g>
<!-- SharedModule&#45;&gt;BlogModule -->
<g id="edge2" class="edge">
<title>SharedModule&#45;&gt;BlogModule</title>
<path fill="none" stroke="#000000" d="M208.4113,-122.1061C208.4113,-122.1061 208.4113,-140.991 208.4113,-140.991"/>
<polygon fill="#000000" stroke="#000000" points="204.9114,-140.9909 208.4113,-150.991 211.9114,-140.991 204.9114,-140.9909"/>
</g>
</g>
</svg>
