<?xml version="1.0" encoding="UTF-8" standalone="no"?>
<!DOCTYPE svg PUBLIC "-//W3C//DTD SVG 1.1//EN"
 "http://www.w3.org/Graphics/SVG/1.1/DTD/svg11.dtd">
<!-- Generated by graphviz version 2.40.1 (20161225.0304)
 -->
<!-- Title: dependencies Pages: 1 -->
<svg width="1836pt" height="360pt"
 viewBox="0.00 0.00 1836.00 360.00" xmlns="http://www.w3.org/2000/svg" xmlns:xlink="http://www.w3.org/1999/xlink">
<g id="graph0" class="graph" transform="scale(1 1) rotate(0) translate(4 356)">
<title>dependencies</title>
<polygon fill="#ffffff" stroke="transparent" points="-4,4 -4,-356 1832,-356 1832,4 -4,4"/>
<text text-anchor="start" x="893.0091" y="-42.4" font-family="sans-serif" font-weight="bold" font-size="14.00" fill="#000000">Legend</text>
<polygon fill="#ffffb3" stroke="transparent" points="680,-10 680,-30 700,-30 700,-10 680,-10"/>
<text text-anchor="start" x="703.629" y="-15.4" font-family="sans-serif" font-size="14.00" fill="#000000"> &#160;Declarations</text>
<polygon fill="#8dd3c7" stroke="transparent" points="793,-10 793,-30 813,-30 813,-10 793,-10"/>
<text text-anchor="start" x="816.7251" y="-15.4" font-family="sans-serif" font-size="14.00" fill="#000000"> &#160;Module</text>
<polygon fill="#80b1d3" stroke="transparent" points="879,-10 879,-30 899,-30 899,-10 879,-10"/>
<text text-anchor="start" x="902.7812" y="-15.4" font-family="sans-serif" font-size="14.00" fill="#000000"> &#160;Bootstrap</text>
<polygon fill="#fdb462" stroke="transparent" points="976,-10 976,-30 996,-30 996,-10 976,-10"/>
<text text-anchor="start" x="999.6732" y="-15.4" font-family="sans-serif" font-size="14.00" fill="#000000"> &#160;Providers</text>
<polygon fill="#fb8072" stroke="transparent" points="1072,-10 1072,-30 1092,-30 1092,-10 1072,-10"/>
<text text-anchor="start" x="1095.7258" y="-15.4" font-family="sans-serif" font-size="14.00" fill="#000000"> &#160;Exports</text>
<g id="clust1" class="cluster">
<title>cluster_AppModule</title>
<polygon fill="none" stroke="#000000" stroke-dasharray="1,5" points="178,-70 178,-344 690,-344 690,-70 178,-70"/>
</g>
<g id="clust2" class="cluster">
<title>cluster_AppModule_declarations</title>
<polygon fill="none" stroke="#000000" points="560,-154 560,-206 682,-206 682,-154 560,-154"/>
</g>
<g id="clust4" class="cluster">
<title>cluster_AppModule_imports</title>
<polygon fill="none" stroke="#000000" points="186,-78 186,-206 552,-206 552,-78 186,-78"/>
</g>
<g id="clust6" class="cluster">
<title>cluster_AppModule_bootstrap</title>
<polygon fill="none" stroke="#000000" points="313,-284 313,-336 437,-336 437,-284 313,-284"/>
</g>
<g id="clust14" class="cluster">
<title>cluster_BlogModule</title>
<polygon fill="none" stroke="#000000" stroke-dasharray="1,5" points="8,-70 8,-138 170,-138 170,-70 8,-70"/>
</g>
<g id="clust15" class="cluster">
<title>cluster_BlogModule_declarations</title>
<polygon fill="none" stroke="#000000" points="16,-78 16,-130 162,-130 162,-78 16,-78"/>
</g>
<g id="clust21" class="cluster">
<title>cluster_CoreModule</title>
<polygon fill="none" stroke="#000000" stroke-dasharray="1,5" points="698,-146 698,-214 1820,-214 1820,-146 698,-146"/>
</g>
<g id="clust22" class="cluster">
<title>cluster_CoreModule_declarations</title>
<polygon fill="none" stroke="#000000" points="1270,-154 1270,-206 1812,-206 1812,-154 1270,-154"/>
</g>
<g id="clust28" class="cluster">
<title>cluster_CoreModule_exports</title>
<polygon fill="none" stroke="#000000" points="706,-154 706,-206 1262,-206 1262,-154 706,-154"/>
</g>
<!-- AppComponent -->
<g id="node1" class="node">
<title>AppComponent</title>
<polygon fill="#ffffb3" stroke="#000000" points="673.9399,-198 568.0601,-198 568.0601,-162 673.9399,-162 673.9399,-198"/>
<text text-anchor="middle" x="621" y="-175.8" font-family="Times,serif" font-size="14.00" fill="#000000">AppComponent</text>
</g>
<!-- AppModule -->
<g id="node2" class="node">
<title>AppModule</title>
<polygon fill="#8dd3c7" stroke="#000000" points="416.6571,-263 413.6571,-267 392.6571,-267 389.6571,-263 333.3429,-263 333.3429,-227 416.6571,-227 416.6571,-263"/>
<text text-anchor="middle" x="375" y="-240.8" font-family="Times,serif" font-size="14.00" fill="#000000">AppModule</text>
</g>
<!-- AppComponent&#45;&gt;AppModule -->
<g id="edge1" class="edge">
<title>AppComponent&#45;&gt;AppModule</title>
<path fill="none" stroke="#000000" d="M568.2274,-174C501.6987,-174 395.9141,-174 395.9141,-174 395.9141,-174 395.9141,-216.7157 395.9141,-216.7157"/>
<polygon fill="#000000" stroke="#000000" points="392.4142,-216.7157 395.9141,-226.7157 399.4142,-216.7158 392.4142,-216.7157"/>
</g>
<!-- AppComponent  -->
<g id="node7" class="node">
<title>AppComponent </title>
<polygon fill="#80b1d3" stroke="#000000" points="429.439,-328 320.561,-328 320.561,-292 429.439,-292 429.439,-328"/>
<text text-anchor="middle" x="375" y="-305.8" font-family="Times,serif" font-size="14.00" fill="#000000">AppComponent </text>
</g>
<!-- AppModule&#45;&gt;AppComponent  -->
<g id="edge6" class="edge">
<title>AppModule&#45;&gt;AppComponent </title>
<path fill="none" stroke="#000000" stroke-dasharray="1,5" d="M375,-263.1061C375,-263.1061 375,-281.991 375,-281.991"/>
<polygon fill="#000000" stroke="#000000" points="371.5001,-281.9909 375,-291.991 378.5001,-281.991 371.5001,-281.9909"/>
</g>
<!-- AppRoutingModule -->
<g id="node3" class="node">
<title>AppRoutingModule</title>
<polygon fill="#8dd3c7" stroke="#000000" points="439.2744,-122 436.2744,-126 415.2744,-126 412.2744,-122 310.7256,-122 310.7256,-86 439.2744,-86 439.2744,-122"/>
<text text-anchor="middle" x="375" y="-99.8" font-family="Times,serif" font-size="14.00" fill="#000000">AppRoutingModule</text>
</g>
<!-- AppRoutingModule&#45;&gt;AppModule -->
<g id="edge2" class="edge">
<title>AppRoutingModule&#45;&gt;AppModule</title>
<path fill="none" stroke="#000000" d="M375,-122.1446C375,-122.1446 375,-216.925 375,-216.925"/>
<polygon fill="#000000" stroke="#000000" points="371.5001,-216.925 375,-226.925 378.5001,-216.925 371.5001,-216.925"/>
</g>
<!-- BlogModule -->
<g id="node4" class="node">
<title>BlogModule</title>
<polygon fill="#8dd3c7" stroke="#000000" points="286.2773,-198 283.2773,-202 262.2773,-202 259.2773,-198 199.7227,-198 199.7227,-162 286.2773,-162 286.2773,-198"/>
<text text-anchor="middle" x="243" y="-175.8" font-family="Times,serif" font-size="14.00" fill="#000000">BlogModule</text>
</g>
<!-- BlogModule&#45;&gt;AppModule -->
<g id="edge3" class="edge">
<title>BlogModule&#45;&gt;AppModule</title>
<path fill="none" stroke="#000000" d="M286.5853,-186C317.7066,-186 354.0859,-186 354.0859,-186 354.0859,-186 354.0859,-216.9775 354.0859,-216.9775"/>
<polygon fill="#000000" stroke="#000000" points="350.586,-216.9774 354.0859,-226.9775 357.586,-216.9775 350.586,-216.9774"/>
</g>
<!-- CoreModule -->
<g id="node5" class="node">
<title>CoreModule</title>
<polygon fill="#8dd3c7" stroke="#000000" points="544.2619,-122 541.2619,-126 520.2619,-126 517.2619,-122 457.7381,-122 457.7381,-86 544.2619,-86 544.2619,-122"/>
<text text-anchor="middle" x="501" y="-99.8" font-family="Times,serif" font-size="14.00" fill="#000000">CoreModule</text>
</g>
<!-- CoreModule&#45;&gt;AppModule -->
<g id="edge4" class="edge">
<title>CoreModule&#45;&gt;AppModule</title>
<path fill="none" stroke="#000000" d="M501,-122.1446C501,-160.2265 501,-245 501,-245 501,-245 426.9562,-245 426.9562,-245"/>
<polygon fill="#000000" stroke="#000000" points="426.9562,-241.5001 416.9562,-245 426.9561,-248.5001 426.9562,-241.5001"/>
</g>
<!-- AboutComponent  -->
<g id="node13" class="node">
<title>AboutComponent </title>
<polygon fill="#fb8072" stroke="#000000" points="1117.8297,-198 998.1703,-198 998.1703,-162 1117.8297,-162 1117.8297,-198"/>
<text text-anchor="middle" x="1058" y="-175.8" font-family="Times,serif" font-size="14.00" fill="#000000">AboutComponent </text>
</g>
<!-- CoreModule&#45;&gt;AboutComponent  -->
<g id="edge13" class="edge">
<title>CoreModule&#45;&gt;AboutComponent </title>
<path fill="none" stroke="#000000" stroke-dasharray="5,2" d="M544.7069,-110C676.0144,-110 1058,-110 1058,-110 1058,-110 1058,-151.9733 1058,-151.9733"/>
<polygon fill="#000000" stroke="#000000" points="1054.5001,-151.9732 1058,-161.9733 1061.5001,-151.9733 1054.5001,-151.9732"/>
</g>
<!-- ContactComponent  -->
<g id="node14" class="node">
<title>ContactComponent </title>
<polygon fill="#fb8072" stroke="#000000" points="980.38,-198 851.62,-198 851.62,-162 980.38,-162 980.38,-198"/>
<text text-anchor="middle" x="916" y="-175.8" font-family="Times,serif" font-size="14.00" fill="#000000">ContactComponent </text>
</g>
<!-- CoreModule&#45;&gt;ContactComponent  -->
<g id="edge14" class="edge">
<title>CoreModule&#45;&gt;ContactComponent </title>
<path fill="none" stroke="#000000" stroke-dasharray="5,2" d="M544.6279,-114C651.1776,-114 916,-114 916,-114 916,-114 916,-151.9652 916,-151.9652"/>
<polygon fill="#000000" stroke="#000000" points="912.5001,-151.9652 916,-161.9652 919.5001,-151.9652 912.5001,-151.9652"/>
</g>
<!-- HomeComponent  -->
<g id="node15" class="node">
<title>HomeComponent </title>
<polygon fill="#fb8072" stroke="#000000" points="833.5442,-198 714.4558,-198 714.4558,-162 833.5442,-162 833.5442,-198"/>
<text text-anchor="middle" x="774" y="-175.8" font-family="Times,serif" font-size="14.00" fill="#000000">HomeComponent </text>
</g>
<!-- CoreModule&#45;&gt;HomeComponent  -->
<g id="edge15" class="edge">
<title>CoreModule&#45;&gt;HomeComponent </title>
<path fill="none" stroke="#000000" stroke-dasharray="5,2" d="M544.5595,-118C621.6349,-118 774,-118 774,-118 774,-118 774,-151.7333 774,-151.7333"/>
<polygon fill="#000000" stroke="#000000" points="770.5001,-151.7333 774,-161.7333 777.5001,-151.7333 770.5001,-151.7333"/>
</g>
<!-- LoginComponent  -->
<g id="node16" class="node">
<title>LoginComponent </title>
<polygon fill="#fb8072" stroke="#000000" points="1254.2759,-198 1135.7241,-198 1135.7241,-162 1254.2759,-162 1254.2759,-198"/>
<text text-anchor="middle" x="1195" y="-175.8" font-family="Times,serif" font-size="14.00" fill="#000000">LoginComponent </text>
</g>
<!-- CoreModule&#45;&gt;LoginComponent  -->
<g id="edge16" class="edge">
<title>CoreModule&#45;&gt;LoginComponent </title>
<path fill="none" stroke="#000000" stroke-dasharray="5,2" d="M544.4128,-106C696.3463,-106 1195,-106 1195,-106 1195,-106 1195,-151.7079 1195,-151.7079"/>
<polygon fill="#000000" stroke="#000000" points="1191.5001,-151.7078 1195,-161.7079 1198.5001,-151.7079 1191.5001,-151.7078"/>
</g>
<!-- SharedModule -->
<g id="node6" class="node">
<title>SharedModule</title>
<polygon fill="#8dd3c7" stroke="#000000" points="292.4231,-122 289.4231,-126 268.4231,-126 265.4231,-122 193.5769,-122 193.5769,-86 292.4231,-86 292.4231,-122"/>
<text text-anchor="middle" x="243" y="-99.8" font-family="Times,serif" font-size="14.00" fill="#000000">SharedModule</text>
</g>
<!-- SharedModule&#45;&gt;AppModule -->
<g id="edge5" class="edge">
<title>SharedModule&#45;&gt;AppModule</title>
<path fill="none" stroke="#000000" d="M292.2851,-104C297.7613,-104 301.412,-104 301.412,-104 301.412,-104 301.412,-245 301.412,-245 301.412,-245 323.047,-245 323.047,-245"/>
<polygon fill="#000000" stroke="#000000" points="323.047,-248.5001 333.047,-245 323.047,-241.5001 323.047,-248.5001"/>
</g>
<!-- SharedModule&#45;&gt;BlogModule -->
<g id="edge8" class="edge">
<title>SharedModule&#45;&gt;BlogModule</title>
<path fill="none" stroke="#000000" d="M243,-122.0109C243,-122.0109 243,-151.855 243,-151.855"/>
<polygon fill="#000000" stroke="#000000" points="239.5001,-151.8549 243,-161.855 246.5001,-151.855 239.5001,-151.8549"/>
</g>
<!-- BlogListComponent -->
<g id="node8" class="node">
<title>BlogListComponent</title>
<polygon fill="#ffffb3" stroke="#000000" points="154.3384,-122 23.6616,-122 23.6616,-86 154.3384,-86 154.3384,-122"/>
<text text-anchor="middle" x="89" y="-99.8" font-family="Times,serif" font-size="14.00" fill="#000000">BlogListComponent</text>
</g>
<!-- BlogListComponent&#45;&gt;BlogModule -->
<g id="edge7" class="edge">
<title>BlogListComponent&#45;&gt;BlogModule</title>
<path fill="none" stroke="#000000" d="M89,-122.0109C89,-144.4852 89,-180 89,-180 89,-180 189.6926,-180 189.6926,-180"/>
<polygon fill="#000000" stroke="#000000" points="189.6926,-183.5001 199.6926,-180 189.6926,-176.5001 189.6926,-183.5001"/>
</g>
<!-- AboutComponent -->
<g id="node9" class="node">
<title>AboutComponent</title>
<polygon fill="#ffffb3" stroke="#000000" points="1671.3301,-198 1554.6699,-198 1554.6699,-162 1671.3301,-162 1671.3301,-198"/>
<text text-anchor="middle" x="1613" y="-175.8" font-family="Times,serif" font-size="14.00" fill="#000000">AboutComponent</text>
</g>
<!-- AboutComponent&#45;&gt;CoreModule -->
<g id="edge9" class="edge">
<title>AboutComponent&#45;&gt;CoreModule</title>
<path fill="none" stroke="#000000" d="M1613,-161.7616C1613,-136.5171 1613,-94 1613,-94 1613,-94 554.5917,-94 554.5917,-94"/>
<polygon fill="#000000" stroke="#000000" points="554.5918,-90.5001 544.5917,-94 554.5917,-97.5001 554.5918,-90.5001"/>
</g>
<!-- ContactComponent -->
<g id="node10" class="node">
<title>ContactComponent</title>
<polygon fill="#ffffb3" stroke="#000000" points="1536.3795,-198 1411.6205,-198 1411.6205,-162 1536.3795,-162 1536.3795,-198"/>
<text text-anchor="middle" x="1474" y="-175.8" font-family="Times,serif" font-size="14.00" fill="#000000">ContactComponent</text>
</g>
<!-- ContactComponent&#45;&gt;CoreModule -->
<g id="edge10" class="edge">
<title>ContactComponent&#45;&gt;CoreModule</title>
<path fill="none" stroke="#000000" d="M1474,-161.8015C1474,-137.6437 1474,-98 1474,-98 1474,-98 554.3805,-98 554.3805,-98"/>
<polygon fill="#000000" stroke="#000000" points="554.3806,-94.5001 544.3805,-98 554.3805,-101.5001 554.3806,-94.5001"/>
</g>
<!-- HomeComponent -->
<g id="node11" class="node">
<title>HomeComponent</title>
<polygon fill="#ffffb3" stroke="#000000" points="1393.5451,-198 1278.4549,-198 1278.4549,-162 1393.5451,-162 1393.5451,-198"/>
<text text-anchor="middle" x="1336" y="-175.8" font-family="Times,serif" font-size="14.00" fill="#000000">HomeComponent</text>
</g>
<!-- HomeComponent&#45;&gt;CoreModule -->
<g id="edge11" class="edge">
<title>HomeComponent&#45;&gt;CoreModule</title>
<path fill="none" stroke="#000000" d="M1336,-161.9092C1336,-138.8672 1336,-102 1336,-102 1336,-102 554.4258,-102 554.4258,-102"/>
<polygon fill="#000000" stroke="#000000" points="554.4259,-98.5001 544.4258,-102 554.4258,-105.5001 554.4259,-98.5001"/>
</g>
<!-- LoginComponent -->
<g id="node12" class="node">
<title>LoginComponent</title>
<polygon fill="#ffffb3" stroke="#000000" points="1804.2758,-198 1689.7242,-198 1689.7242,-162 1804.2758,-162 1804.2758,-198"/>
<text text-anchor="middle" x="1747" y="-175.8" font-family="Times,serif" font-size="14.00" fill="#000000">LoginComponent</text>
</g>
<!-- LoginComponent&#45;&gt;CoreModule -->
<g id="edge12" class="edge">
<title>LoginComponent&#45;&gt;CoreModule</title>
<path fill="none" stroke="#000000" d="M1747,-161.7872C1747,-135.4889 1747,-90 1747,-90 1747,-90 554.6152,-90 554.6152,-90"/>
<polygon fill="#000000" stroke="#000000" points="554.6152,-86.5001 544.6152,-90 554.6152,-93.5001 554.6152,-86.5001"/>
</g>
</g>
</svg>
